#tb 0: 1/25
#media_type 0: video
#codec_id 0: rawvideo
#dimensions 0: 352x288
#sar 0: 0/1
0,          0,          0,        1,   202752, 0x3ed465a5
0,          1,          1,        1,   202752, 0x9bda6504
0,          2,          2,        1,   202752, 0xf10ada35
0,          3,          3,        1,   202752, 0x48e2ac92
0,          4,          4,        1,   202752, 0x8953305a
0,          5,          5,        1,   202752, 0xa2e115d4
0,          6,          6,        1,   202752, 0xfe2e24b3
0,          7,          7,        1,   202752, 0x77877934
0,          8,          8,        1,   202752, 0x5d59d490
0,          9,          9,        1,   202752, 0x921255a8
0,         10,         10,        1,   202752, 0x435ab5d4
0,         11,         11,        1,   202752, 0xe9b55fe0
0,         12,         12,        1,   202752, 0x9f5274af
0,         13,         13,        1,   202752, 0x4cbaab10
0,         14,         14,        1,   202752, 0xefa4b683
0,         15,         15,        1,   202752, 0x61d1faec
0,         16,         16,        1,   202752, 0x6f3b9de5
0,         17,         17,        1,   202752, 0xaa96b38a
0,         18,         18,        1,   202752, 0x0fa436f4
0,         19,         19,        1,   202752, 0x8b3dce57
0,         20,         20,        1,   202752, 0x36d7060c
0,         21,         21,        1,   202752, 0x81d0dc5b
0,         22,         22,        1,   202752, 0x55a4f122
0,         23,         23,        1,   202752, 0x12edb3ae
0,         24,         24,        1,   202752, 0x31d99dad
0,         25,         25,        1,   202752, 0x9325a9dc
0,         26,         26,        1,   202752, 0x2caf6c84
0,         27,         27,        1,   202752, 0x27e74cec
0,         28,         28,        1,   202752, 0xdcf0b81a
0,         29,         29,        1,   202752, 0x8159988c
0,         30,         30,        1,   202752, 0x0bcadc35
0,         31,         31,        1,   202752, 0xd90afc33
0,         32,         32,        1,   202752, 0x7951059f
0,         33,         33,        1,   202752, 0x44fbddf1
0,         34,         34,        1,   202752, 0x955eb48d
0,         35,         35,        1,   202752, 0x6126bb75
0,         36,         36,        1,   202752, 0xa99d5db2
0,         37,         37,        1,   202752, 0x3db258da
0,         38,         38,        1,   202752, 0xaa86f004
0,         39,         39,        1,   202752, 0x326b71f8
0,         40,         40,        1,   202752, 0x8e3e1986
0,         41,         41,        1,   202752, 0x78738f9a
0,         42,         42,        1,   202752, 0x8b552527
0,         43,         43,        1,   202752, 0x804490e9
0,         44,         44,        1,   202752, 0x39fa1b5b
0,         45,         45,        1,   202752, 0xfc118248
0,         46,         46,        1,   202752, 0xa7db058a
0,         47,         47,        1,   202752, 0xfa3b6ad9
0,         48,         48,        1,   202752, 0x7d1be927
0,         49,         49,        1,   202752, 0x3bfd4fca
